HIERARCHY
ROOT Hips
{
	OFFSET 0.000000 0.000000 0.000000
	CHANNELS 6 Xposition Yposition Zposition Zrotation Yrotation Xrotation 
	JOINT LeftUpLeg_virtual
	{
		OFFSET 0.000000 0.000000 0.000000
		CHANNELS 3 Zrotation Yrotation Xrotation
		JOINT LeftUpLeg
		{
			OFFSET 10.205400 -3.823500 0.155100
			CHANNELS 3 Zrotation Yrotation Xrotation
			JOINT LeftLeg
			{
				OFFSET 0.708757 -12.982077 0.567790
				CHANNELS 3 Zrotation Yrotation Xrotation
				JOINT LeftFoot
				{
					OFFSET -0.708756 -10.717838 -2.184338
					CHANNELS 3 Zrotation Yrotation Xrotation
					JOINT LeftToeBase
					{
						OFFSET 0.108149 -7.191104 7.560241
						CHANNELS 3 Zrotation Yrotation Xrotation
						End Site
						{
							OFFSET 0.000000 0.000000 0.000000
						}
					}
				}
			}
		}
	}
	JOINT RightUpLeg_virtual
	{
		OFFSET 0.000000 0.000000 0.000000
		CHANNELS 3 Zrotation Yrotation Xrotation
		JOINT RightUpLeg
		{
			OFFSET -10.205400 -3.823500 0.005500
			CHANNELS 3 Zrotation Yrotation Xrotation
			JOINT RightLeg
			{
				OFFSET -0.708756 -12.982134 0.610632
				CHANNELS 3 Zrotation Yrotation Xrotation
				JOINT RightFoot
				{
					OFFSET 0.708754 -10.717769 -1.945823
					CHANNELS 3 Zrotation Yrotation Xrotation
					JOINT RightToeBase
					{
						OFFSET -0.108140 -7.191069 7.372968
						CHANNELS 3 Zrotation Yrotation Xrotation
						End Site
						{
							OFFSET 0.000000 0.000000 0.000000
						}
					}
				}
			}
		}
	}
	JOINT Spine_virtual
	{
		OFFSET 0.000000 0.000000 0.000000
		CHANNELS 3 Zrotation Yrotation Xrotation
		JOINT Spine
		{
			OFFSET 0.000000 6.876099 0.125700
			CHANNELS 3 Zrotation Yrotation Xrotation
			JOINT Spine1
			{
				OFFSET 0.000000 8.022060 0.146608
				CHANNELS 3 Zrotation Yrotation Xrotation
				JOINT Spine2
				{
					OFFSET 0.000000 9.168068 0.167552
					CHANNELS 3 Zrotation Yrotation Xrotation
					JOINT Neck_virtual
					{
						OFFSET 0.000000 0.000000 0.000000
						CHANNELS 3 Zrotation Yrotation Xrotation
						JOINT Neck
						{
							OFFSET 0.000000 10.314075 0.188496
							CHANNELS 3 Zrotation Yrotation Xrotation
							JOINT Head
							{
								OFFSET 0.000000 7.643700 -2.377400
								CHANNELS 3 Zrotation Yrotation Xrotation
								End Site
								{
									OFFSET 0.000000 0.000000 0.000000
								}
							}
						}
					}
					JOINT LeftShoulder_virtual
					{
						OFFSET 0.000000 0.000000 0.000000
						CHANNELS 3 Zrotation Yrotation Xrotation
						JOINT LeftShoulder
						{
							OFFSET 4.392200 8.824978 0.174984
							CHANNELS 3 Zrotation Yrotation Xrotation
							JOINT LeftArm
							{
								OFFSET 8.771219 -2.981674 -0.026999
								CHANNELS 3 Zrotation Yrotation Xrotation
								JOINT LeftForeArm
								{
									OFFSET 8.512804 0.000000 -0.000000
									CHANNELS 3 Zrotation Yrotation Xrotation
									JOINT LeftHand
									{
										OFFSET 18.484802 0.000000 -0.000000
										CHANNELS 3 Zrotation Yrotation Xrotation
										End Site
										{
											OFFSET 0.000000 0.000000 0.000000
										}
									}
								}
							}
						}
					}
					JOINT RightShoulder_virtual
					{
						OFFSET 0.000000 0.000000 0.000000
						CHANNELS 3 Zrotation Yrotation Xrotation
						JOINT RightShoulder
						{
							OFFSET -4.392200 8.824993 0.141379
							CHANNELS 3 Zrotation Yrotation Xrotation
							JOINT RightArm
							{
								OFFSET -8.771282 -2.981682 -0.094208
								CHANNELS 3 Zrotation Yrotation Xrotation
								JOINT RightForeArm
								{
									OFFSET -8.494598 0.000000 0.000000
									CHANNELS 3 Zrotation Yrotation Xrotation
									JOINT RightHand
									{
										OFFSET -18.483803 0.000000 0.000001
										CHANNELS 3 Zrotation Yrotation Xrotation
										End Site
										{
											OFFSET 0.000000 0.000000 0.000000
										}
									}
								}
							}
						}
					}
				}
			}
		}
	}
}
MOTION
Frames: 11
Frame Time: 0.033333
3.665515 36.551205 -13.223453 -179.992642 -1.851452 179.040022 -3.508999 -1.718044 11.518217 -1.897626 -3.712457 -12.986495 7.567180 6.655642 13.269407 3.063531 -0.959302 8.269175 0.000000 0.000000 0.000000 1.841144 -1.100201 11.697566 -1.944915 3.200665 -9.109306 -9.438227 1.104238 10.857162 9.893658 2.352458 8.771606 0.000000 0.000000 0.000000 -0.397488 1.091433 1.221390 -3.839371 1.460769 -10.587151 -1.053417 -3.983951 4.471501 -0.035019 -0.043142 -0.171183 -1.409608 -2.032080 5.358628 1.089548 0.566749 6.258232 0.000000 0.000000 0.000000 0.344289 -1.297334 2.556213 9.717905 6.085617 -4.407308 1.464380 17.526513 -36.755656 -2.802906 -47.090586 -5.444155 0.000000 0.000000 0.000000 -3.718006 -0.562051 2.030566 6.962235 -8.402767 -6.342497 22.041910 -29.184268 -37.801801 -5.165181 41.877041 -5.817667 0.000000 0.000000 0.000000 
3.655673 36.546776 -13.215628 -179.864426 -1.656366 178.716175 -3.838532 -2.098752 11.102188 -1.894772 -4.047342 -13.337341 7.674623 6.684457 12.990532 3.219061 -0.719184 7.951393 0.000000 0.000000 0.000000 2.203269 -1.007672 11.463811 -2.181386 3.132318 -9.323011 -9.772088 0.681912 10.742474 9.399651 1.979786 8.622731 0.000000 0.000000 0.000000 -0.302108 1.061139 1.402119 -3.740516 1.479950 -10.425258 -1.009790 -3.862700 4.540230 -0.013090 0.095927 -0.287577 -1.402230 -1.609715 5.291424 1.187858 0.613424 6.037196 0.000000 0.000000 0.000000 0.278330 -1.172449 2.528520 9.669627 6.171850 -4.335664 1.562812 17.548387 -36.750137 -2.871059 -47.246420 -5.351380 0.000000 0.000000 0.000000 -3.800613 -0.532882 1.669796 6.889027 -8.404805 -6.234624 22.030813 -29.241648 -37.841379 -5.167090 42.038749 -5.838548 0.000000 0.000000 0.000000 
3.647385 36.554451 -13.214948 -179.885818 -1.776730 178.722172 -3.869168 -2.115067 11.070103 -1.919799 -3.984500 -13.322819 7.734677 6.788585 12.937560 2.928659 -0.656911 8.031694 0.000000 0.000000 0.000000 2.198178 -1.065931 11.431117 -2.189498 3.065674 -9.311060 -9.745006 0.673336 10.830570 9.384850 1.979627 8.710471 0.000000 0.000000 0.000000 -0.320092 0.988771 1.358193 -3.737161 1.518996 -10.414502 -1.046558 -3.849173 4.526629 -0.033403 0.081574 -0.236284 -1.418879 -1.599640 5.242920 1.198538 0.573676 6.193373 0.000000 0.000000 0.000000 0.335248 -1.128882 2.352243 9.663557 5.991126 -4.227491 1.519664 17.602509 -36.789892 -2.805250 -46.937582 -5.342711 0.000000 0.000000 0.000000 -3.771225 -0.503282 1.785409 6.893036 -8.381799 -6.667275 21.937768 -29.332282 -37.832681 -4.943791 42.117542 -5.622896 0.000000 0.000000 0.000000 
3.645228 36.563614 -13.226503 -179.888154 -1.954258 178.744316 -3.891243 -2.145665 11.057806 -1.921386 -3.900375 -13.346772 7.829505 6.946637 12.865878 2.553429 -0.566649 8.125010 0.000000 0.000000 0.000000 2.190145 -1.153256 11.392274 -2.207118 2.935043 -9.303915 -9.715258 0.654678 10.954769 9.371113 1.999368 8.764524 0.000000 0.000000 0.000000 -0.322032 1.058780 1.398460 -3.762925 1.547612 -10.428656 -1.058234 -3.831410 4.428839 -0.036901 0.049356 -0.285586 -1.414850 -1.625995 5.223258 1.224062 0.477397 6.151231 0.000000 0.000000 0.000000 0.280259 -1.144603 2.490746 9.506065 5.883817 -4.162804 1.562278 17.777022 -36.812192 -2.708043 -47.047006 -5.354024 0.000000 0.000000 0.000000 -3.794172 -0.433776 1.731007 6.922716 -8.381870 -6.256045 22.020014 -29.610448 -37.945393 -5.157062 42.138780 -5.870890 0.000000 0.000000 0.000000 
3.639244 36.566769 -13.241992 -179.924982 -2.086521 178.759588 -3.899988 -2.148232 11.063296 -1.951334 -3.831827 -13.391380 7.920366 7.131454 12.821228 2.156122 -0.466141 8.209655 0.000000 0.000000 0.000000 2.172703 -1.208236 11.362426 -2.185333 2.848267 -9.307953 -9.709863 0.655611 11.097161 9.334687 2.005638 8.806247 0.000000 0.000000 0.000000 -0.314827 0.907570 1.382253 -3.778799 1.636235 -10.418942 -1.092084 -3.778228 4.374421 -0.026900 0.073465 -0.314494 -1.403219 -1.610969 5.261890 1.312698 0.389760 6.235367 0.000000 0.000000 0.000000 0.253417 -1.086946 2.539073 9.441302 5.714109 -4.211525 1.558581 17.974939 -36.635277 -2.577159 -47.057189 -5.355677 0.000000 0.000000 0.000000 -3.788546 -0.425858 1.864797 6.934391 -8.360987 -6.492398 21.848734 -29.887719 -37.643614 -5.125817 42.146092 -5.872057 0.000000 0.000000 0.000000 
3.636257 36.561741 -13.251874 -179.888427 -2.152994 178.793548 -3.871385 -2.103302 11.029792 -1.965980 -3.767939 -13.447327 8.102601 7.346206 12.834674 1.748423 -0.402000 8.237602 0.000000 0.000000 0.000000 2.175626 -1.186934 11.317435 -2.197491 2.705775 -9.314980 -9.655226 0.655562 11.238351 9.353463 2.079857 8.791420 0.000000 0.000000 0.000000 -0.281746 0.835912 1.306583 -3.756315 1.749257 -10.395772 -1.075212 -3.777541 4.352503 -0.005008 0.073197 -0.281871 -1.467287 -1.504828 5.234702 1.301197 0.152359 6.305778 0.000000 0.000000 0.000000 0.235522 -1.115032 2.430185 9.226709 5.472858 -4.405257 1.616004 18.267209 -36.663950 -2.716234 -47.060109 -5.052213 0.000000 0.000000 0.000000 -3.853499 -0.420075 1.826668 7.012248 -8.374054 -6.531088 21.852313 -30.186509 -37.835785 -4.929198 42.167436 -5.684197 0.000000 0.000000 0.000000 
3.638396 36.547382 -13.245148 -179.893727 -2.137014 178.815268 -3.853188 -2.025845 10.966850 -2.031053 -3.775907 -13.512708 8.273255 7.494209 12.920651 1.423660 -0.361897 8.230348 0.000000 0.000000 0.000000 2.137642 -1.114829 11.251303 -2.165976 2.696081 -9.307652 -9.627611 0.636475 11.366155 9.322918 2.093307 8.731868 0.000000 0.000000 0.000000 -0.286320 0.920323 1.229969 -3.724857 1.678488 -10.316564 -1.102697 -3.702681 4.341877 -0.008473 0.077105 -0.248732 -1.499398 -1.441679 5.220755 1.387710 -0.051991 6.377737 0.000000 0.000000 0.000000 0.223627 -1.009763 2.450006 9.051240 5.026626 -4.276886 1.561239 18.691600 -36.650942 -2.623835 -47.044519 -4.956677 0.000000 0.000000 0.000000 -3.872297 -0.392094 1.831670 7.070780 -8.339437 -6.619892 21.742753 -30.485941 -37.894439 -4.768041 42.092151 -5.445284 0.000000 0.000000 0.000000 
3.641186 36.532112 -13.228022 -179.900680 -2.056092 178.849241 -3.824610 -1.977485 10.878779 -2.114951 -3.801044 -13.607571 8.512470 7.609150 13.088172 1.171891 -0.354317 8.221026 0.000000 0.000000 0.000000 2.120825 -1.078332 11.152514 -2.155617 2.767219 -9.290790 -9.625386 0.606148 11.441805 9.290103 2.090486 8.590013 0.000000 0.000000 0.000000 -0.265470 0.925735 1.079572 -3.656118 1.657681 -10.221758 -1.107199 -3.643872 4.353019 -0.022704 0.054579 -0.255051 -1.493885 -1.428156 5.247715 1.487070 -0.290331 6.393306 0.000000 0.000000 0.000000 0.203272 -0.983273 2.417591 8.814878 4.613429 -4.361716 1.461922 19.115657 -36.613997 -2.407862 -47.194268 -4.950264 0.000000 0.000000 0.000000 -3.903330 -0.323899 1.699576 7.126546 -8.308663 -6.581554 21.632037 -30.809867 -37.924796 -4.651232 41.854129 -5.500771 0.000000 0.000000 0.000000 
3.640905 36.517593 -13.212821 -179.900817 -1.858098 178.875592 -3.783317 -1.912613 10.812617 -2.256642 -3.796674 -13.716981 8.746728 7.680873 13.267724 1.017949 -0.369468 8.213594 0.000000 0.000000 0.000000 2.118310 -1.009188 11.032480 -2.178213 2.931652 -9.261474 -9.630212 0.620379 11.497587 9.295740 2.089484 8.497735 0.000000 0.000000 0.000000 -0.236202 0.854316 1.043512 -3.534986 1.573325 -10.141887 -1.092039 -3.512260 4.213353 -0.004870 0.143127 -0.255048 -1.506068 -1.338311 5.318754 1.527826 -0.606152 6.633582 0.000000 0.000000 0.000000 0.170339 -0.905925 2.497811 8.563457 4.233980 -4.316211 1.285346 19.703047 -36.443246 -2.203319 -47.367352 -4.874465 0.000000 0.000000 0.000000 -3.886451 -0.285127 1.905957 7.233186 -8.292437 -6.645792 21.419400 -31.088965 -37.892636 -4.418374 41.694688 -5.175074 0.000000 0.000000 0.000000 
3.639068 36.509384 -13.201205 -179.938342 -1.606046 178.919838 -3.772483 -1.921154 10.774042 -2.437536 -3.724754 -13.851011 9.043503 7.765445 13.429970 0.890460 -0.448537 8.249230 0.000000 0.000000 0.000000 2.114014 -1.028287 10.925034 -2.256438 3.167072 -9.264898 -9.667330 0.627612 11.476548 9.316308 2.075440 8.408208 0.000000 0.000000 0.000000 -0.200701 1.077892 0.884331 -3.440963 1.654193 -10.036529 -1.097528 -3.587625 4.224663 -0.043555 0.004709 -0.254933 -1.461679 -1.429629 5.330809 1.597091 -0.886570 6.827714 0.000000 0.000000 0.000000 0.210967 -0.838824 2.511223 8.276930 3.858077 -4.312880 0.998718 20.314108 -36.234645 -1.932176 -47.763417 -4.856181 0.000000 0.000000 0.000000 -3.834139 -0.194371 1.979459 7.391778 -8.291353 -6.610522 21.373880 -31.369071 -37.866640 -4.189413 41.418117 -5.138719 0.000000 0.000000 0.000000 
3.641213 36.511471 -13.206916 -179.895380 -1.358187 178.974411 -3.674023 -1.990752 10.765924 -2.603796 -3.587720 -13.986156 9.265988 7.779339 13.521819 0.832127 -0.542599 8.344923 0.000000 0.000000 0.000000 2.239762 -1.121784 10.856009 -2.387151 3.428803 -9.305372 -9.700789 0.678743 11.413844 9.378198 2.065367 8.351195 0.000000 0.000000 0.000000 -0.087750 0.905917 0.751310 -3.275710 1.753027 -9.993858 -1.036219 -3.480655 4.195866 -0.014670 0.050844 -0.198196 -1.454939 -1.338851 5.377513 1.574488 -1.223678 7.033196 0.000000 0.000000 0.000000 0.185581 -0.761867 2.556924 7.985241 3.527717 -4.319451 0.585394 21.117058 -36.006018 -1.708314 -48.356284 -4.713671 0.000000 0.000000 0.000000 -3.856768 -0.158203 1.871026 7.586284 -8.360304 -6.555458 21.435371 -31.509999 -37.996657 -3.975644 41.337046 -5.020656 0.000000 0.000000 0.000000 
